<svg xmlns="http://www.w3.org/2000/svg" style="display: none;">
    <symbol id="rivian-icon" viewBox="0 0 92 18">
        <g clip-path="url(#clip0_2170_11314)">
        <path d="M33.4305 7.46216C33.4305 5.92806 32.3787 4.43262 30.1171 4.43262H24.2668V13.5341H26.2393V6.07062H29.8288C30.9336 6.07062 31.459 6.60405 31.459 7.46216C31.459 8.33313 30.9326 8.86656 29.8288 8.86656H28.3019C27.61 8.86656 27.2213 9.251 27.2213 9.93527V10.5055H28.3167C28.8291 10.5055 29.2104 10.6748 29.5266 11.0775L31.472 13.535H33.8908L31.1828 10.1284C32.6288 9.80193 33.4305 8.86566 33.4305 7.46216Z" fill="white"/>
        <path d="M40.518 4.42676H38.5457V13.5283H40.518V4.42676Z" fill="white"/>
        <path d="M55.7187 4.42676H53.6153L50.276 11.4746L46.9363 4.42676H44.833L49.2241 13.5292H51.3275L55.7187 4.42676Z" fill="white"/>
        <path d="M62.0422 4.42676H60.0698V13.5283H62.0422V4.42676Z" fill="white"/>
        <path d="M72.9802 4.42676H70.8767L66.3545 13.5283H68.458L69.0235 12.3584C69.2597 11.8645 69.6282 11.6429 70.1806 11.6429H73.599L73.1913 10.7848C72.9415 10.2513 72.5338 10.0048 71.9296 10.0048H70.1815L71.9296 6.41611L75.3999 13.5283H77.5038L72.9802 4.42676Z" fill="white"/>
        <path d="M91.5 4.42676H89.5936V11.1885L84.0849 4.42676H81.824V13.5292H83.7304V6.76742L89.2382 13.5292H91.5V4.42676Z" fill="white"/>
        <path d="M19.19 8.28481C18.1308 7.20414 12.4006 1.35842 11.3265 0.515043C10.9517 0.217973 10.4691 0 9.86372 0C9.25739 0 8.77477 0.217973 8.40094 0.515043C7.32683 1.35842 1.59565 7.20414 0.536458 8.28481C0.449974 8.38323 0.528089 8.53771 0.65828 8.53771C1.18741 8.53771 2.414 8.53956 3.1533 8.53956C3.41368 8.53956 3.49086 8.49451 3.65453 8.32068C3.8182 8.14684 4.63282 7.2823 4.63282 7.2823C5.66876 6.17773 8.19542 3.73864 9.11884 2.96977C9.46569 2.68097 9.85813 2.69017 9.86372 2.69017C9.86927 2.69017 10.2617 2.68097 10.6086 2.96977C11.532 3.73957 14.0586 6.17863 15.0946 7.2823C15.0946 7.2823 15.9092 8.14684 16.0729 8.32068C16.2365 8.49451 16.3138 8.53956 16.5741 8.53956C17.3125 8.53956 18.54 8.53771 19.0691 8.53771C19.1993 8.53866 19.2765 8.38323 19.19 8.28481Z" fill="white"/>
        <path d="M0.536505 9.67662C1.5957 10.7573 7.32595 16.603 8.40003 17.4464C8.77481 17.7435 9.25743 17.9614 9.86281 17.9614C10.4691 17.9614 10.9518 17.7435 11.3256 17.4464C12.3997 16.603 18.1299 10.7573 19.1892 9.67662C19.2756 9.5782 19.1975 9.42372 19.0673 9.42372C18.5382 9.42372 17.3116 9.42188 16.5723 9.42188C16.3119 9.42188 16.2348 9.46692 16.0711 9.64076C15.9074 9.81459 15.0928 10.6791 15.0928 10.6791C14.0568 11.7837 11.5302 14.2228 10.6068 14.9917C10.2599 15.2805 9.86749 15.2712 9.8619 15.2712C9.8563 15.2712 9.46386 15.2805 9.11702 14.9917C8.19359 14.2218 5.66698 11.7828 4.63101 10.6791C4.63101 10.6791 3.81639 9.81459 3.65272 9.64076C3.48905 9.46692 3.41186 9.42188 3.15148 9.42188C2.41312 9.42188 1.1856 9.42372 0.656466 9.42372C0.528135 9.42372 0.450021 9.5782 0.536505 9.67662Z" fill="white"/>
        <path d="M9.17107 10.9132C8.69869 10.4864 7.86641 9.68807 7.55673 9.33032C7.41537 9.17215 7.42465 8.97437 7.42465 8.97437C7.42465 8.97437 7.41537 8.77664 7.55673 8.61847C7.86641 8.26067 8.69869 7.46237 9.17107 7.03564C9.36449 6.85721 9.411 6.74498 9.411 6.5261C9.411 5.84921 9.411 4.57999 9.411 4.09898C9.411 4.00149 9.2957 3.94079 9.20643 4.02264C8.15283 4.98742 5.80567 7.28764 5.01893 8.17882C4.6423 8.57338 4.67764 8.97532 4.67764 8.97532C4.67764 8.97532 4.64323 9.37631 5.01893 9.77177C5.80658 10.663 8.15374 12.9632 9.20643 13.928C9.30034 14.0089 9.411 13.9583 9.411 13.8434C9.411 13.3614 9.411 12.1005 9.411 11.4236C9.411 11.2029 9.36449 11.0907 9.17107 10.9132Z" fill="white"/>
        <path d="M10.5558 10.9154C11.0283 10.4886 11.8606 9.69035 12.1702 9.33255C12.3115 9.17438 12.3023 8.97665 12.3023 8.97665C12.3023 8.97665 12.3115 8.77887 12.1702 8.6207C11.8606 8.26295 11.0283 7.4646 10.5558 7.03787C10.3624 6.85944 10.3159 6.74726 10.3159 6.52833C10.3159 5.85144 10.3159 4.5905 10.3159 4.10858C10.3159 3.99361 10.4266 3.94302 10.5205 4.02396C11.5741 4.98875 13.9213 7.28897 14.708 8.18015C15.0837 8.57471 15.0493 8.97665 15.0493 8.97665C15.0493 8.97665 15.0837 9.37764 14.708 9.7731C13.9203 10.6643 11.5732 12.9645 10.5205 13.9293C10.4266 14.0103 10.3159 13.9596 10.3159 13.8447C10.3159 13.3628 10.3159 12.1018 10.3159 11.4249C10.3169 11.2051 10.3624 11.0938 10.5558 10.9154Z" fill="white"/>
        </g>
        <defs>
        <clipPath id="clip0_2170_11314">
        <rect width="91" height="18" fill="white" transform="translate(0.5)"/>
        </clipPath>
        </defs>
    </symbol>
    <symbol id="oura-logo" viewBox="0 0 57 19">
        <path d="M11.0109 0.870117H3.73242V2.47556H11.0109V0.870117Z" fill="white"/>
        <path d="M38.6808 12.3435C40.4239 11.8345 41.5555 10.2917 41.5555 8.41999C41.5555 5.99224 39.7205 4.35547 36.9911 4.35547H30.3701V18.7262H31.8992V12.508H37.0752L40.3704 18.7262H42.0218L38.5814 12.367L38.6808 12.3435ZM36.9911 11.0983H31.8992V5.74947H36.9911C38.8031 5.74947 40.0264 6.82237 40.0264 8.41999C40.0264 10.0254 38.8031 11.0983 36.9911 11.0983Z" fill="white"/>
        <path d="M22.4418 19.0003C26.188 19.0003 28.8028 16.3063 28.8028 12.4453V4.35547H27.2355V12.3279C27.2355 15.3038 25.2629 17.387 22.4418 17.387C20.1022 17.387 17.5869 15.805 17.5869 12.3279V4.35547H16.0195V12.4375C16.0119 16.3063 18.6572 19.0003 22.4418 19.0003Z" fill="white"/>
        <path d="M49.1245 4.35547L42.71 18.7262H44.3537L45.9364 15.0454H53.7653L55.3556 18.7262H56.9994L50.5772 4.35547H49.1245ZM49.8585 6.23502L53.169 13.6514H46.5251L49.8585 6.23502Z" fill="white"/>
        <path d="M7.37225 17.3847C4.22231 17.3847 1.66107 14.7612 1.66107 11.5346C1.66107 8.30806 4.22231 5.68453 7.37225 5.68453C10.5222 5.68453 13.0834 8.30806 13.0834 11.5346C13.0834 14.769 10.5222 17.3847 7.37225 17.3847ZM7.37225 4.08691C3.35837 4.08691 0.09375 7.43094 0.09375 11.5424C0.09375 15.654 3.35837 18.998 7.37225 18.998C11.3861 18.998 14.6507 15.654 14.6507 11.5424C14.6507 7.43094 11.3861 4.08691 7.37225 4.08691Z" fill="white"/>   
    </symbol>
    <symbol id="moxion-icon" viewBox="0 0 79 14">
        <path d="M27.9286 9.72253C27.9286 10.3496 27.4095 10.858 26.7691 10.858H23.3009H19.8329C19.1925 10.858 18.6733 10.3496 18.6733 9.72253V4.63105C18.6733 4.00249 19.1937 3.49294 19.8356 3.49294H23.3009H26.7664C27.4083 3.49294 27.9286 4.00249 27.9286 4.63105V9.72253ZM29.4108 0.723633L15.7855 0.730215C15.0919 0.730215 14.4537 1.12108 14.1219 1.74914L10.4929 8.61931C10.2974 8.98936 9.78221 8.98936 9.58678 8.61931L5.95766 1.74914C5.6259 1.12108 4.98777 0.730215 4.29411 0.730215H1.39097C1.12383 0.730215 0.907281 0.953491 0.907281 1.22899L0.90807 12.8907C0.891506 13.1882 1.12108 13.4389 1.41011 13.4389H3.64432C4.04988 13.4389 4.37922 13.1009 4.38105 12.6827L4.40374 7.53263C4.4048 7.28615 4.7191 7.1965 4.843 7.40722L8.10054 12.9485C8.27933 13.2529 8.59938 13.4389 8.94451 13.4389H11.1351C11.4802 13.4389 11.8003 13.2529 11.9791 12.9485L15.1407 7.37653C15.222 7.23332 15.395 7.22434 15.4986 7.31366V11.4324C15.4986 12.5105 16.391 13.3843 17.4918 13.3843H29.4154C30.5162 13.3843 31.4086 12.5105 31.4086 11.4324V2.67994C31.4086 1.5995 30.5142 0.723633 29.4108 0.723633Z" fill="white"/>
        <path d="M64.7607 9.80268C64.7607 10.4353 64.2367 10.9482 63.5907 10.9482H60.0916H56.593C55.9465 10.9482 55.4231 10.4353 55.4231 9.80268V4.6658C55.4231 4.03162 55.948 3.51758 56.5954 3.51758H60.0916H63.5879C64.2358 3.51758 64.7607 4.03162 64.7607 4.6658V9.80268ZM78.6341 0.769105H77.1911C76.1862 0.769105 75.3709 1.6093 75.3709 2.64573V7.39492C75.3709 7.70644 75.0066 7.86356 74.7915 7.64473L68.8575 1.6068C68.3133 1.05325 67.5781 0.745716 66.8139 0.752134L54.2358 0.723633C53.1224 0.723633 52.2197 1.60728 52.2197 2.6974V11.5278C52.2197 12.6154 53.1204 13.497 54.231 13.497L67.3465 13.5212C67.9563 13.5212 68.4503 13.0116 68.4503 12.3829V6.54136C68.4503 6.42367 68.5878 6.36393 68.6698 6.44606L75.4374 13.2499C75.6102 13.4238 75.8422 13.5212 76.0839 13.5212H77.9495C78.5299 13.5212 79.0002 13.0361 79.0002 12.4375V1.14653C79.0002 0.938045 78.8362 0.769105 78.6341 0.769105Z" fill="white"/>
        <path d="M50.2528 6.4195H47.7738C47.5014 6.4195 47.2808 6.64707 47.2808 6.92781V11.0762C47.2808 11.3166 47 11.4383 46.8335 11.2701L37.3353 1.67806C36.8477 1.18582 36.1927 0.910156 35.5104 0.910156H32.9319C32.4792 0.910156 32.2553 1.4767 32.5784 1.80327C32.7236 1.9498 32.8616 2.08937 32.9704 2.19903C33.8102 3.04726 36.2928 5.55504 37.4402 6.71347C37.7044 6.98021 37.7042 7.41628 37.4399 7.68303L32.6076 12.5656C32.2622 12.9144 32.5018 13.5195 32.9851 13.5195C32.9851 13.5195 35.088 13.5189 36.0581 13.5187C36.3656 13.5186 36.6608 13.3943 36.8805 13.1724L39.9751 10.0472C40.188 9.8321 40.5288 9.8321 40.7417 10.0472L43.6526 12.9875L43.8267 13.1632C44.0527 13.3916 44.3566 13.5195 44.6731 13.5195H47.7188C47.7269 13.5195 47.7344 13.518 47.7422 13.5176C47.7536 13.5185 47.7654 13.5195 47.7771 13.5195H50.2547C50.5301 13.5195 50.753 13.2893 50.753 13.0053V6.93563C50.753 6.65054 50.5292 6.4195 50.2528 6.4195Z" fill="white"/>
        <path d="M50.2546 0.910156H44.3436C44.2191 0.910156 44.0995 0.960471 44.0105 1.05027L42.3281 2.75046C42.1393 2.94126 42.1393 3.25472 42.3284 3.44526L43.9609 5.09049C44.2173 5.349 44.627 5.34881 44.8831 5.09006L46.8752 3.07844C47.0264 2.92592 47.281 3.03623 47.281 3.25428V4.32597C47.281 4.62534 47.5163 4.86804 47.8067 4.86804H50.2411C50.5243 4.86804 50.7534 4.63161 50.7534 4.33996V1.42432C50.7534 1.14035 50.5301 0.910156 50.2546 0.910156Z" fill="white"/>
    </symobol>

    <symbol id="fwa-logo" viewBox="0 0 79 24">
        <path d="M67.351 3.50703C67.6534 3.50703 67.9358 3.57183 68.1734 3.72304C68.715 4.00385 69.0606 4.58861 69.0606 5.23818V10.1091H73.7803C74.7323 10.1091 75.4899 10.8667 75.4899 11.8187C75.4899 12.7707 74.7323 13.5282 73.7803 13.5282H69.0606V18.1616C69.0606 19.1136 68.303 19.8711 67.351 19.8711C67.1566 19.8711 54.2101 19.8711 54.2101 19.8711C53.2581 19.8711 52.5005 19.1136 52.5005 18.1616V11.7323C52.5437 10.8235 53.3013 10.0875 54.2101 10.0875H65.64V6.92612H52.4558L46.1993 18.5519C46.0913 19.0719 45.7657 19.5255 45.2689 19.7647C45.0313 19.8727 44.7706 19.9375 44.533 19.9375C43.9482 19.9375 43.3634 19.6351 43.061 19.0935C42.9962 19.0071 42.953 18.8991 42.9098 18.7911L37.9741 9.09236L32.9735 18.5751C32.7575 19.0734 32.4319 19.5271 31.9336 19.7878C31.696 19.8958 31.4352 19.9606 31.1976 19.9606C30.6128 19.9606 30.0281 19.6582 29.7257 19.1166C29.6609 19.0302 29.6177 18.9222 29.5745 18.8142L23.534 6.9724H13.4449V10.1338H21.6069C22.5589 10.1338 23.3164 10.8914 23.3164 11.8434C23.3164 12.7953 22.5589 13.5529 21.6069 13.5529H13.4449V18.2727C13.4449 19.2246 12.6873 19.9822 11.7354 19.9822C10.7834 19.9822 10.0258 19.2246 10.0258 18.2727V13.5529H5.21966C4.26768 13.5529 3.51012 12.7953 3.51012 11.8434C3.51012 10.8914 4.26768 10.1338 5.21966 10.1338H9.93942V5.26286C9.93942 4.6133 10.3082 4.05014 10.8266 3.74773C11.0642 3.61812 11.3465 3.53172 11.649 3.53172H24.4428C24.7236 3.53172 24.9843 3.59652 25.2219 3.72613C25.5907 3.87733 25.8931 4.15968 26.0659 4.5485L31.1313 14.4848L36.1966 5.00211C36.4558 4.48215 36.587 4.00694 37.1486 3.74618C37.3862 3.63818 37.647 3.57338 37.8846 3.57338C38.3181 3.57338 38.7285 3.72458 39.0325 4.02853C39.3349 4.26614 39.4877 4.44049 39.7037 4.8509L44.4882 14.4848L49.8575 4.5269C49.9871 4.28929 50.1816 4.09334 50.4207 3.94213C50.7231 3.70452 51.0919 3.55178 51.5254 3.55178H67.351M55.8564 16.432H65.6415V13.5313H55.8564V16.432ZM67.351 0H51.5254C50.3775 0 49.2527 0.390357 48.3424 1.08312C47.7144 1.51668 47.1945 2.0999 46.8273 2.74946L46.8057 2.79267L46.7841 2.83587L44.5978 6.90606C44.5978 6.90606 42.0643 1.92709 41.3067 1.32073C40.3548 0.498361 39.142 0.0432036 37.8861 0.0432036C37.1069 0.0432036 36.3278 0.216009 35.6134 0.563163C34.2495 1.21273 33.4919 2.42545 32.8639 3.83259L31.2192 6.90606L29.2057 2.96547C28.6858 1.90395 27.7986 1.03838 26.7155 0.541562C26.0011 0.194408 25.2219 0.021603 24.4428 0.021603H11.649C10.7834 0.021603 9.91782 0.237609 9.1587 0.649566C7.47076 1.55834 6.43084 3.33423 6.43084 5.23972V6.60365H5.21812C2.33905 6.60365 0 8.94115 0 11.8218C0 14.7024 2.33751 17.0399 5.21812 17.0399H6.43084V18.2526C6.43084 21.1317 8.76835 23.4707 11.649 23.4707C14.5296 23.4707 16.8671 21.1332 16.8671 18.2526V17.0399H21.5004C22.4956 17.0399 23.4491 16.7591 24.2499 16.2607L26.3066 20.2877C26.4146 20.5253 26.5226 20.7429 26.6537 20.9589C27.6057 22.5172 29.2952 23.4707 31.1127 23.4707C31.8919 23.4707 32.6711 23.2979 33.3855 22.9508C34.663 22.3444 35.7662 21.306 36.3293 19.9853L37.8229 16.6727L39.6851 20.3093C39.7931 20.5469 39.9012 20.7645 40.0308 20.9805C40.9827 22.5388 42.6722 23.4923 44.4898 23.4923C45.2689 23.4923 46.0481 23.3195 46.7625 22.9724C47.9536 22.3876 48.884 21.3708 49.3607 20.1581C50.1399 22.0636 52.0238 23.4059 54.2101 23.4059H67.351C70.2301 23.4059 72.5692 21.1548 72.5692 18.2758V17.063H73.7819C76.6609 17.063 79 14.7255 79 11.8449C79 8.96584 76.6625 6.62679 73.7819 6.62679H72.5692V5.26286C72.5692 3.33577 71.5308 1.58302 69.8413 0.672708C69.0837 0.216007 68.2166 0 67.351 0Z" fill="black"/>
    </symbol>

</svg>